<?xml version="1.0" encoding="UTF-8"?>
<svg id="Capa_1" data-name="Capa 1" xmlns="http://www.w3.org/2000/svg" viewBox="0 0 818.31 157.86">
  <path d="m62.45,157.86h-6.29c-10.93,0-19.06-2.56-24.38-7.69-5.32-5.13-7.99-12.9-7.99-23.32v-29.23c0-2.77-.31-5.25-.93-7.43-.62-2.18-1.71-4.02-3.27-5.52-1.56-1.5-3.63-2.65-6.2-3.44-2.58-.79-5.82-1.19-9.73-1.19H0v-11.81h3.65c4.13,0,7.5-.34,10.11-1.02,2.6-.68,4.64-1.71,6.12-3.1,1.47-1.39,2.49-3.16,3.06-5.31.57-2.15.85-4.7.85-7.65v-20.14c0-4.76.57-9.05,1.7-12.87,1.13-3.82,2.99-7.08,5.56-9.77,2.58-2.69,5.92-4.76,10.03-6.2,4.11-1.44,9.13-2.17,15.08-2.17h6.29v11.89h-5.01c-13.14,0-19.71,6.37-19.71,19.12v19.8c0,13.82-5.98,21.61-17.93,23.36,12.06,1.19,18.1,8.95,18.1,23.28v29.06c0,12.97,6.51,19.46,19.54,19.46h5.01v11.89Z"/>
  <path d="m100.05,71.54h27.99c1.53,0,3.74.34,6.64,1.02l-.17-10.11c0-1.98-.7-3.67-2.09-5.05-1.39-1.39-3.08-2.08-5.07-2.08h-27.16c-1.93,0-3.6-.71-5.02-2.12-1.42-1.42-2.13-3.09-2.13-5.01s.69-3.67,2.08-5.06c1.39-1.39,3.08-2.08,5.06-2.08h27.14c5.9,0,10.93,2.07,15.1,6.2,4.17,4.14,6.34,9.21,6.51,15.21l1.78,53.44c0,1.98-.71,3.67-2.12,5.06-1.42,1.39-3.09,2.08-5.01,2.08-2.04,0-3.77-.69-5.18-2.08-1.42-1.39-2.12-3.07-2.12-5.06l-12.08,7.14h-24.17c-6.01,0-11.12-2.09-15.32-6.29-4.2-4.19-6.3-9.29-6.3-15.29v-8.33c0-5.95,2.11-11.03,6.34-15.25,4.23-4.22,9.32-6.33,15.27-6.33Zm35.69,27.78l-.42-6.03c-.06-2.04-.77-3.74-2.13-5.1s-3.03-2.04-5.02-2.04h-28.15c-1.98,0-3.67.69-5.06,2.08-1.39,1.39-2.08,3.07-2.08,5.06v7.99c0,1.93.71,3.6,2.13,5.01,1.42,1.42,3.09,2.12,5.02,2.12h20.16l15.56-9.09Z"/>
  <path d="m163,29.57V10.28h72.05v19.46c0,1.98-.71,3.67-2.12,5.06-1.42,1.39-3.09,2.08-5.01,2.08s-3.7-.71-5.14-2.12c-1.44-1.42-2.17-3.09-2.17-5.01v-5.18h-14.44v91.33c0,1.98-.71,3.67-2.12,5.06-1.42,1.39-3.09,2.08-5.01,2.08-2.04,0-3.77-.69-5.18-2.08-1.42-1.39-2.12-3.07-2.12-5.06V24.55h-14.44v5.01c0,1.98-.69,3.67-2.08,5.06s-3.07,2.08-5.06,2.08-3.67-.69-5.06-2.08c-1.39-1.39-2.08-3.07-2.08-5.06Z"/>
  <path d="m305.17,122.85h-43.5c-1.98,0-3.67-.69-5.06-2.08-1.39-1.39-2.08-3.07-2.08-5.06s.69-3.6,2.08-5.01c1.39-1.42,3.07-2.12,5.06-2.12h14.61v-53.27h-14.44c-1.98,0-3.67-.71-5.06-2.12-1.39-1.42-2.08-3.09-2.08-5.01s.69-3.7,2.08-5.14c1.39-1.44,3.07-2.17,5.06-2.17h21.75c1.98,0,3.67.72,5.06,2.17,1.39,1.44,2.08,3.16,2.08,5.14v60.41h14.27c1.98,0,3.7.69,5.14,2.08,1.44,1.39,2.17,3.07,2.17,5.06s-.71,3.67-2.12,5.06c-1.42,1.39-3.09,2.08-5.01,2.08ZM276.11,3.82h7.48c1.98,0,3.67.69,5.06,2.08,1.39,1.39,2.08,3.07,2.08,5.06v6.12c0,1.98-.69,3.7-2.08,5.14-1.39,1.44-3.07,2.17-5.06,2.17h-7.65c-2.04,0-3.75-.74-5.14-2.21-1.39-1.47-2.05-3.11-2-4.93l.17-6.29c0-1.98.69-3.67,2.08-5.06s3.07-2.08,5.06-2.08Z"/>
  <path d="m365.72,57.6l-19.5,12.66v45.62c0,1.93-.71,3.6-2.12,5.01s-3.09,2.12-5.01,2.12-3.6-.71-5.01-2.12c-1.42-1.42-2.12-3.09-2.12-5.01V48.17c0-1.98.69-3.7,2.08-5.14,1.39-1.44,3.07-2.17,5.06-2.17s3.6.72,5.01,2.17c1.42,1.44,2.12,3.16,2.12,5.14v4.76l13.03-7.9c4.37-2.77,9.3-4.16,14.8-4.16h6.64c5.67,0,10.58,2.01,14.72,6.03,4.14,4.02,6.32,8.98,6.55,14.87l1.95,54.12c.06,1.93-.62,3.6-2.04,5.01s-3.12,2.12-5.1,2.12c-1.87,0-3.51-.64-4.93-1.91-1.42-1.27-2.15-3.02-2.21-5.23l-2.12-53.27c-.17-4.98-2.78-7.48-7.83-7.48h-6.98c-2.16,0-4.48.82-6.98,2.46Z"/>
  <path d="m466.47,123.02h-14.27c-5.89,0-10.96-2.09-15.21-6.29-4.25-4.19-6.37-9.23-6.37-15.12v-46.3h-7.31c-1.98,0-3.67-.68-5.06-2.04-1.39-1.36-2.08-3.06-2.08-5.1s.69-3.67,2.08-5.06,3.07-2.08,5.06-2.08h7.48v-17.5c0-1.98.69-3.67,2.08-5.06s3.07-2.08,5.06-2.08c1.87,0,3.53.71,4.97,2.12,1.44,1.42,2.17,3.09,2.17,5.01v17.5h28.72c1.92,0,3.6.71,5.01,2.12,1.42,1.42,2.12,3.09,2.12,5.01s-.71,3.67-2.12,5.06c-1.42,1.39-3.09,2.08-5.01,2.08h-28.89v46.3c0,1.93.72,3.6,2.17,5.01,1.44,1.42,3.16,2.12,5.14,2.12h13.93c3.79,0,6.32-2.05,7.56-6.16,1.25-4.11,3.65-6.16,7.22-6.16,2.09,0,3.81.69,5.14,2.08,1.33,1.39,2,3.13,2,5.23,0,4.31-2.03,8.6-6.08,12.87-4.05,4.28-9.22,6.41-15.5,6.41Z"/>
  <path d="m522.01,71.54h27.99c1.53,0,3.74.34,6.64,1.02l-.17-10.11c0-1.98-.7-3.67-2.09-5.05-1.39-1.39-3.08-2.08-5.07-2.08h-27.16c-1.93,0-3.6-.71-5.02-2.12-1.42-1.42-2.13-3.09-2.13-5.01s.69-3.67,2.08-5.06c1.39-1.39,3.08-2.08,5.06-2.08h27.14c5.9,0,10.93,2.07,15.1,6.2,4.17,4.14,6.34,9.21,6.51,15.21l1.78,53.44c0,1.98-.71,3.67-2.12,5.06-1.42,1.39-3.09,2.08-5.01,2.08-2.04,0-3.77-.69-5.18-2.08-1.42-1.39-2.12-3.07-2.12-5.06l-12.08,7.14h-24.16c-6.01,0-11.12-2.09-15.32-6.29-4.2-4.19-6.3-9.29-6.3-15.29v-8.33c0-5.95,2.11-11.03,6.34-15.25,4.23-4.22,9.32-6.33,15.27-6.33Zm35.69,27.78l-.42-6.03c-.06-2.04-.77-3.74-2.13-5.1-1.36-1.36-3.03-2.04-5.02-2.04h-28.15c-1.98,0-3.67.69-5.06,2.08-1.39,1.39-2.08,3.07-2.08,5.06v7.99c0,1.93.71,3.6,2.12,5.01,1.42,1.42,3.09,2.12,5.02,2.12h20.16l15.56-9.09Z"/>
  <path d="m657.17,61.94l-38.47,87.01c-1.3,3.11-3.57,4.67-6.8,4.67h-19.8c-1.98,0-3.67-.68-5.06-2.04-1.39-1.36-2.08-3.06-2.08-5.1s.69-3.65,2.08-5.01,3.07-2.04,5.06-2.04h15.29l9.77-22.68h-3.48c-3.23,0-5.56-1.67-6.99-5l-21.39-49.79v-13.76c0-1.98.68-3.67,2.04-5.06,1.36-1.39,3-2.08,4.93-2.08s3.7.69,5.14,2.08c1.45,1.39,2.17,3.07,2.17,5.06v10.62s18.78,43.5,18.78,43.5h4.96l19.39-43.35.04-10.95c0-1.87.72-3.52,2.17-4.96,1.44-1.44,3.16-2.17,5.14-2.17s3.6.71,5.01,2.12c1.42,1.42,2.12,3.09,2.12,5.01v13.93Z"/>
  <path d="m690.79,71.54h27.99c1.53,0,3.74.34,6.64,1.02l-.17-10.11c0-1.98-.7-3.67-2.09-5.05-1.39-1.39-3.08-2.08-5.07-2.08h-27.16c-1.93,0-3.6-.71-5.02-2.12-1.42-1.42-2.13-3.09-2.13-5.01s.69-3.67,2.08-5.06c1.39-1.39,3.08-2.08,5.06-2.08h27.14c5.9,0,10.93,2.07,15.1,6.2,4.17,4.14,6.34,9.21,6.51,15.21l1.78,53.44c0,1.98-.71,3.67-2.12,5.06-1.42,1.39-3.09,2.08-5.01,2.08-2.04,0-3.77-.69-5.18-2.08-1.42-1.39-2.12-3.07-2.12-5.06l-12.08,7.14h-24.16c-6.01,0-11.12-2.09-15.32-6.29-4.2-4.19-6.3-9.29-6.3-15.29v-8.33c0-5.95,2.11-11.03,6.34-15.25,4.23-4.22,9.32-6.33,15.27-6.33Zm35.69,27.78l-.42-6.03c-.06-2.04-.77-3.74-2.13-5.1-1.36-1.36-3.03-2.04-5.02-2.04h-28.15c-1.98,0-3.67.69-5.06,2.08-1.39,1.39-2.08,3.07-2.08,5.06v7.99c0,1.93.71,3.6,2.12,5.01,1.42,1.42,3.09,2.12,5.02,2.12h20.16l15.56-9.09Z"/>
  <path d="m755.78,0h6.29c10.93,0,19.06,2.56,24.38,7.69,5.32,5.13,7.99,12.9,7.99,23.32v19.63c0,2.78.31,5.25.93,7.43.62,2.18,1.71,4.02,3.27,5.52,1.56,1.5,3.64,2.65,6.25,3.44,2.6.79,5.86,1.19,9.77,1.19h3.65v11.81h-3.65c-4.13,0-7.52.34-10.15,1.02-2.63.68-4.69,1.71-6.16,3.1-1.47,1.39-2.49,3.16-3.06,5.31-.57,2.15-.85,4.7-.85,7.65v29.74c0,4.76-.57,9.05-1.7,12.87-1.13,3.82-2.97,7.08-5.52,9.77-2.55,2.69-5.89,4.76-10.03,6.2-4.13,1.44-9.18,2.17-15.12,2.17h-6.29v-11.89h5.1c13.08,0,19.63-6.37,19.63-19.12v-29.4c0-13.82,5.98-21.58,17.93-23.28-12.06-1.3-18.1-9.09-18.1-23.36v-19.46c0-12.97-6.49-19.46-19.46-19.46h-5.1V0Z"/>
</svg>